<?xml version="1.0" standalone="no"?>
<!DOCTYPE svg PUBLIC "-//W3C//DTD SVG 20010904//EN"
 "http://www.w3.org/TR/2001/REC-SVG-20010904/DTD/svg10.dtd">
<svg version="1.0" xmlns="http://www.w3.org/2000/svg"
 width="150.000000pt" height="150.000000pt" viewBox="0 0 150.000000 150.000000"
 preserveAspectRatio="xMidYMid meet">

<g transform="translate(0.000000,150.000000) scale(0.100000,-0.100000)"
fill="#000000" stroke="none">
<path d="M0 750 l0 -750 750 0 750 0 0 750 0 750 -750 0 -750 0 0 -750z m1057
255 c6 -27 14 -71 18 -97 3 -27 10 -48 14 -48 12 0 29 44 42 112 13 63 29 100
29 63 0 -11 -9 -62 -19 -113 -18 -94 -41 -136 -62 -115 -12 12 -35 99 -44 171
-4 28 -10 52 -14 52 -4 0 -22 -68 -39 -151 -47 -230 -78 -245 -112 -53 -11 60
-23 116 -26 124 -10 23 -21 -39 -34 -190 -21 -249 -49 -237 -101 45 l-13 70
-7 -55 c-4 -30 -7 -89 -8 -131 -1 -84 -16 -178 -31 -193 -27 -27 -64 65 -101
252 -12 62 -23 111 -24 110 -2 -2 -8 -61 -15 -133 -15 -171 -35 -280 -56 -313
l-17 -26 -23 27 c-39 45 -95 275 -93 376 l1 46 10 -50 c32 -174 40 -211 58
-267 11 -35 26 -72 34 -83 13 -18 14 -17 25 20 6 22 18 110 26 195 27 275 24
260 45 260 22 0 28 -19 60 -175 11 -55 27 -125 36 -155 16 -51 17 -53 24 -28
5 14 11 89 14 165 9 187 14 223 32 223 20 0 30 -31 56 -168 25 -134 28 -130
48 62 14 139 22 166 49 166 15 0 23 -10 31 -38 10 -38 39 -198 40 -217 0 -5 4
-5 10 1 5 5 22 68 36 139 33 165 38 177 67 173 17 -2 24 -13 34 -53z"/>
</g>
</svg>
